<svg version="1.1" id="Layer_1" xmlns="http://www.w3.org/2000/svg" xmlns:xlink="http://www.w3.org/1999/xlink" x="0px" y="0px"
	 width="100%" viewBox="0 0 398 333" enable-background="new 0 0 398 333" xml:space="preserve">
<path fill="#000000" opacity="1.000000" stroke="none" 
	d="
M1.000000,333.000000 
	C1.000000,222.977997 1.000000,112.955978 1.468657,2.466985 
	C133.833282,2.000000 265.729248,2.000000 397.657776,2.000000 
	C397.657776,112.576279 397.657776,222.733917 397.657776,333.000000 
	C265.210419,333.000000 133.105209,333.000000 1.000000,333.000000 
M393.000885,109.500000 
	C393.000885,75.404991 393.000885,41.309986 393.000885,7.286136 
	C263.690125,7.286136 134.954163,7.286136 6.286565,7.286136 
	C6.286565,114.309891 6.286565,221.046326 6.286565,327.713684 
	C135.310211,327.713684 264.046173,327.713684 393.000885,327.713684 
	C393.000885,255.117783 393.000885,182.808884 393.000885,109.500000 
z"/>
<path fill="#FFFFFF" opacity="1.000000" stroke="none" 
	d="
M1.000000,333.500000 
	C133.105209,333.000000 265.210419,333.000000 397.657776,333.000000 
	C397.657776,222.733917 397.657776,112.576279 397.657776,2.000000 
	C265.729248,2.000000 133.833282,2.000000 1.468657,2.000000 
	C2.333333,1.666667 3.666423,1.042896 5.000033,1.041782 
	C62.999981,0.993322 120.999969,1.000000 178.999954,1.000000 
	C252.333267,1.000000 325.666595,1.000000 398.999939,1.000000 
	C398.999939,111.999939 398.999939,222.999878 398.999969,333.999908 
	C266.333344,334.000000 133.666672,334.000000 1.000000,333.500000 
z"/>
<path fill="#FFFFFF" opacity="1.000000" stroke="none" 
	d="
M393.000885,110.000000 
	C393.000885,182.808884 393.000885,255.117783 393.000885,327.713684 
	C264.046173,327.713684 135.310211,327.713684 6.286565,327.713684 
	C6.286565,221.046326 6.286565,114.309891 6.286565,7.286136 
	C134.954163,7.286136 263.690125,7.286136 393.000885,7.286136 
	C393.000885,41.309986 393.000885,75.404991 393.000885,110.000000 
M237.553162,162.936447 
	C234.434341,162.936447 231.315506,162.936447 228.087097,162.936447 
	C228.087097,167.391449 228.087097,171.316055 228.087097,175.655304 
	C231.463394,175.655304 234.561447,175.655304 237.538956,175.655304 
	C239.312012,182.425629 233.770844,188.101242 227.996857,188.456146 
	C220.428879,188.921326 215.234222,185.061249 215.026855,177.997665 
	C214.821716,171.009613 214.913040,164.008667 215.040268,157.016418 
	C215.134155,151.855972 217.561874,148.071579 222.519028,146.294479 
	C227.263321,144.593689 232.596039,146.354721 235.946945,150.395554 
	C236.640076,151.231400 237.544312,152.446396 238.405884,152.493820 
	C242.452316,152.716522 246.517807,152.592896 250.738617,152.592896 
	C247.481583,138.934814 236.726334,131.137573 223.757492,132.378876 
	C210.925446,133.607071 202.342163,142.571533 201.757706,155.881729 
	C201.414703,163.693375 201.418427,171.542465 201.734558,179.355774 
	C202.254486,192.205521 210.314041,200.266006 223.522949,201.670135 
	C236.926529,203.094955 247.856308,196.369278 250.406052,184.059555 
	C251.796631,177.346100 251.413910,170.265335 251.855881,162.936432 
	C246.816544,162.936432 242.673111,162.936432 237.553162,162.936447 
M191.242508,177.011703 
	C191.234619,170.187714 191.366302,163.360107 191.190063,156.540466 
	C190.813110,141.954407 181.279129,132.507233 166.920288,132.292099 
	C152.359711,132.073929 142.467880,140.979126 141.652679,155.500702 
	C141.242844,162.801331 141.300049,170.149597 141.558029,177.461807 
	C142.092133,192.600815 151.437912,201.713379 166.182495,201.827179 
	C180.994980,201.941498 190.304764,193.045212 191.242508,177.011703 
M268.081604,194.400558 
	C276.542633,202.893311 286.798767,203.718063 297.219727,199.844101 
	C307.426605,196.049713 311.502258,187.477188 311.451508,176.832489 
	C311.416565,169.504700 311.645020,162.164276 311.292206,154.851868 
	C310.629913,141.124313 300.625549,132.183258 286.480469,132.292511 
	C272.440002,132.400970 262.485565,141.574554 261.954102,155.262558 
	C261.657104,162.912292 261.174805,170.671173 262.117126,178.213303 
	C262.786774,183.573273 265.696075,188.653427 268.081604,194.400558 
M102.779152,180.496338 
	C102.779152,164.743088 102.779152,148.989838 102.779152,133.175156 
	C98.090881,133.175156 94.124466,133.175156 89.933685,133.175156 
	C89.933685,155.788269 89.933685,178.222336 89.933685,200.845367 
	C105.094353,200.845367 120.137047,200.845367 135.348083,200.845367 
	C135.348083,196.788391 135.348083,193.028885 135.348083,188.811340 
	C124.544930,188.811340 113.952209,188.811340 102.779144,188.811340 
	C102.779144,186.072968 102.779144,183.787186 102.779152,180.496338 
z"/>
<path fill="#090909" opacity="1.000000" stroke="none" 
	d="
M238.041412,162.936432 
	C242.673111,162.936432 246.816544,162.936432 251.855881,162.936432 
	C251.413910,170.265335 251.796631,177.346100 250.406052,184.059555 
	C247.856308,196.369278 236.926529,203.094955 223.522949,201.670135 
	C210.314041,200.266006 202.254486,192.205521 201.734558,179.355774 
	C201.418427,171.542465 201.414703,163.693375 201.757706,155.881729 
	C202.342163,142.571533 210.925446,133.607071 223.757492,132.378876 
	C236.726334,131.137573 247.481583,138.934814 250.738617,152.592896 
	C246.517807,152.592896 242.452316,152.716522 238.405884,152.493820 
	C237.544312,152.446396 236.640076,151.231400 235.946945,150.395554 
	C232.596039,146.354721 227.263321,144.593689 222.519028,146.294479 
	C217.561874,148.071579 215.134155,151.855972 215.040268,157.016418 
	C214.913040,164.008667 214.821716,171.009613 215.026855,177.997665 
	C215.234222,185.061249 220.428879,188.921326 227.996857,188.456146 
	C233.770844,188.101242 239.312012,182.425629 237.538956,175.655304 
	C234.561447,175.655304 231.463394,175.655304 228.087097,175.655304 
	C228.087097,171.316055 228.087097,167.391449 228.087097,162.936447 
	C231.315506,162.936447 234.434341,162.936447 238.041412,162.936432 
z"/>
<path fill="#090909" opacity="1.000000" stroke="none" 
	d="
M191.226959,177.460815 
	C190.304764,193.045212 180.994980,201.941498 166.182495,201.827179 
	C151.437912,201.713379 142.092133,192.600815 141.558029,177.461807 
	C141.300049,170.149597 141.242844,162.801331 141.652679,155.500702 
	C142.467880,140.979126 152.359711,132.073929 166.920288,132.292099 
	C181.279129,132.507233 190.813110,141.954407 191.190063,156.540466 
	C191.366302,163.360107 191.234619,170.187714 191.226959,177.460815 
M157.489624,149.132584 
	C156.619217,151.764084 155.144135,154.362427 154.997604,157.033646 
	C154.633347,163.674149 154.740311,170.351273 154.908249,177.007385 
	C155.102127,184.691650 159.541931,189.091629 166.636810,188.988663 
	C173.411316,188.890350 177.742798,184.454010 177.942596,177.033813 
	C178.117310,170.544373 178.033401,164.046112 177.969330,157.552689 
	C177.920197,152.571762 176.411377,148.260040 171.402740,146.213760 
	C166.532623,144.224075 161.955109,144.794052 157.489624,149.132584 
z"/>
<path fill="#080808" opacity="1.000000" stroke="none" 
	d="
M267.843689,194.129517 
	C265.696075,188.653427 262.786774,183.573273 262.117126,178.213303 
	C261.174805,170.671173 261.657104,162.912292 261.954102,155.262558 
	C262.485565,141.574554 272.440002,132.400970 286.480469,132.292511 
	C300.625549,132.183258 310.629913,141.124313 311.292206,154.851868 
	C311.645020,162.164276 311.416565,169.504700 311.451508,176.832489 
	C311.502258,187.477188 307.426605,196.049713 297.219727,199.844101 
	C286.798767,203.718063 276.542633,202.893311 267.843689,194.129517 
M275.065704,171.412109 
	C275.087097,173.572968 274.988495,175.742966 275.152008,177.893021 
	C275.679993,184.835114 280.064301,188.968918 286.793121,188.993057 
	C293.400299,189.016739 297.891357,184.704239 298.092072,177.706589 
	C298.292145,170.730072 298.283966,163.739975 298.108490,156.762344 
	C297.929016,149.626816 293.697205,145.340073 287.089386,145.174133 
	C280.181030,145.000671 275.585480,149.214554 275.172363,156.475769 
	C274.908356,161.116501 275.086029,165.782364 275.065704,171.412109 
z"/>
<path fill="#070707" opacity="1.000000" stroke="none" 
	d="
M102.779144,180.998871 
	C102.779144,183.787186 102.779144,186.072968 102.779144,188.811340 
	C113.952209,188.811340 124.544930,188.811340 135.348083,188.811340 
	C135.348083,193.028885 135.348083,196.788391 135.348083,200.845367 
	C120.137047,200.845367 105.094353,200.845367 89.933685,200.845367 
	C89.933685,178.222336 89.933685,155.788269 89.933685,133.175156 
	C94.124466,133.175156 98.090881,133.175156 102.779152,133.175156 
	C102.779152,148.989838 102.779152,164.743088 102.779144,180.998871 
z"/>
<path fill="#F9F9F9" opacity="1.000000" stroke="none" 
	d="
M157.753754,148.847717 
	C161.955109,144.794052 166.532623,144.224075 171.402740,146.213760 
	C176.411377,148.260040 177.920197,152.571762 177.969330,157.552689 
	C178.033401,164.046112 178.117310,170.544373 177.942596,177.033813 
	C177.742798,184.454010 173.411316,188.890350 166.636810,188.988663 
	C159.541931,189.091629 155.102127,184.691650 154.908249,177.007385 
	C154.740311,170.351273 154.633347,163.674149 154.997604,157.033646 
	C155.144135,154.362427 156.619217,151.764084 157.753754,148.847717 
z"/>
<path fill="#F9F9F9" opacity="1.000000" stroke="none" 
	d="
M275.065674,170.924530 
	C275.086029,165.782364 274.908356,161.116501 275.172363,156.475769 
	C275.585480,149.214554 280.181030,145.000671 287.089386,145.174133 
	C293.697205,145.340073 297.929016,149.626816 298.108490,156.762344 
	C298.283966,163.739975 298.292145,170.730072 298.092072,177.706589 
	C297.891357,184.704239 293.400299,189.016739 286.793121,188.993057 
	C280.064301,188.968918 275.679993,184.835114 275.152008,177.893021 
	C274.988495,175.742966 275.087097,173.572968 275.065674,170.924530 
z"/>
</svg>